<mxfile modified="2023-01-03T02:28:52.281Z" host="app.diagrams.net" agent="5.0 (Windows NT 10.0; Win64; x64) AppleWebKit/537.36 (KHTML, like Gecko) Chrome/108.0.0.0 Whale/3.18.154.7 Safari/537.36" etag="mprOsG8exVNoBWE97viQ" version="20.7.4" type="github">
  <diagram id="Ht1M8jgEwFfnCIfOTk4-" name="Page-1">
    <mxGraphModel dx="1434" dy="1592" grid="1" gridSize="10" guides="1" tooltips="1" connect="1" arrows="1" fold="1" page="1" pageScale="1" pageWidth="1169" pageHeight="827" math="0" shadow="0">
      <root>
        <mxCell id="0" />
        <mxCell id="1" parent="0" />
        <mxCell id="UEzPUAAOIrF-is8g5C7q-176" value="Shared Services Account" style="points=[[0,0],[0.25,0],[0.5,0],[0.75,0],[1,0],[1,0.25],[1,0.5],[1,0.75],[1,1],[0.75,1],[0.5,1],[0.25,1],[0,1],[0,0.75],[0,0.5],[0,0.25]];outlineConnect=0;html=1;whiteSpace=wrap;fontSize=12;fontStyle=0;shape=mxgraph.aws4.group;grIcon=mxgraph.aws4.group_aws_cloud_alt;strokeColor=#BAC8D3;fillColor=none;verticalAlign=top;align=left;spacingLeft=30;fontColor=#EEEEEE;dashed=0;labelBackgroundColor=none;container=1;pointerEvents=0;collapsible=0;recursiveResize=0;" parent="1" vertex="1">
          <mxGeometry x="219" y="490" width="220" height="310" as="geometry" />
        </mxCell>
        <mxCell id="UEzPUAAOIrF-is8g5C7q-185" value="Log Archive Account" style="points=[[0,0],[0.25,0],[0.5,0],[0.75,0],[1,0],[1,0.25],[1,0.5],[1,0.75],[1,1],[0.75,1],[0.5,1],[0.25,1],[0,1],[0,0.75],[0,0.5],[0,0.25]];outlineConnect=0;html=1;whiteSpace=wrap;fontSize=12;fontStyle=0;shape=mxgraph.aws4.group;grIcon=mxgraph.aws4.group_aws_cloud_alt;strokeColor=#BAC8D3;fillColor=none;verticalAlign=top;align=left;spacingLeft=30;fontColor=#EEEEEE;dashed=0;labelBackgroundColor=none;container=1;pointerEvents=0;collapsible=0;recursiveResize=0;" parent="1" vertex="1">
          <mxGeometry x="464" y="490" width="230" height="310" as="geometry" />
        </mxCell>
        <mxCell id="UEzPUAAOIrF-is8g5C7q-186" value="Security Account" style="points=[[0,0],[0.25,0],[0.5,0],[0.75,0],[1,0],[1,0.25],[1,0.5],[1,0.75],[1,1],[0.75,1],[0.5,1],[0.25,1],[0,1],[0,0.75],[0,0.5],[0,0.25]];outlineConnect=0;html=1;whiteSpace=wrap;fontSize=12;fontStyle=0;shape=mxgraph.aws4.group;grIcon=mxgraph.aws4.group_aws_cloud_alt;strokeColor=#BAC8D3;fillColor=none;verticalAlign=top;align=left;spacingLeft=30;fontColor=#EEEEEE;dashed=0;labelBackgroundColor=none;container=1;pointerEvents=0;collapsible=0;recursiveResize=0;" parent="1" vertex="1">
          <mxGeometry x="720" y="490" width="230" height="310" as="geometry" />
        </mxCell>
        <mxCell id="UEzPUAAOIrF-is8g5C7q-175" value="AWS Cloud" style="points=[[0,0],[0.25,0],[0.5,0],[0.75,0],[1,0],[1,0.25],[1,0.5],[1,0.75],[1,1],[0.75,1],[0.5,1],[0.25,1],[0,1],[0,0.75],[0,0.5],[0,0.25]];outlineConnect=0;html=1;whiteSpace=wrap;fontSize=12;fontStyle=0;shape=mxgraph.aws4.group;grIcon=mxgraph.aws4.group_aws_cloud_alt;strokeColor=#BAC8D3;fillColor=none;verticalAlign=top;align=left;spacingLeft=30;fontColor=#EEEEEE;dashed=0;labelBackgroundColor=none;container=1;pointerEvents=0;collapsible=0;recursiveResize=0;" parent="1" vertex="1">
          <mxGeometry x="219" y="50" width="730" height="410" as="geometry" />
        </mxCell>
        <mxCell id="UEzPUAAOIrF-is8g5C7q-195" style="edgeStyle=orthogonalEdgeStyle;rounded=0;orthogonalLoop=1;jettySize=auto;html=1;startArrow=none;startFill=0;endArrow=open;endFill=0;strokeColor=#0B4D6A;strokeWidth=2;labelBackgroundColor=none;fontColor=default;" parent="1" source="UEzPUAAOIrF-is8g5C7q-177" target="UEzPUAAOIrF-is8g5C7q-178" edge="1">
          <mxGeometry relative="1" as="geometry" />
        </mxCell>
        <mxCell id="UEzPUAAOIrF-is8g5C7q-196" style="edgeStyle=orthogonalEdgeStyle;rounded=0;orthogonalLoop=1;jettySize=auto;html=1;startArrow=none;startFill=0;endArrow=open;endFill=0;strokeColor=#0B4D6A;strokeWidth=2;labelBackgroundColor=none;fontColor=default;" parent="1" source="UEzPUAAOIrF-is8g5C7q-178" target="UEzPUAAOIrF-is8g5C7q-179" edge="1">
          <mxGeometry relative="1" as="geometry" />
        </mxCell>
        <mxCell id="UEzPUAAOIrF-is8g5C7q-198" style="edgeStyle=orthogonalEdgeStyle;rounded=0;orthogonalLoop=1;jettySize=auto;html=1;startArrow=none;startFill=0;endArrow=open;endFill=0;strokeColor=#0B4D6A;strokeWidth=2;labelBackgroundColor=none;fontColor=default;" parent="1" source="UEzPUAAOIrF-is8g5C7q-178" target="UEzPUAAOIrF-is8g5C7q-181" edge="1">
          <mxGeometry relative="1" as="geometry">
            <Array as="points">
              <mxPoint x="355" y="150" />
            </Array>
          </mxGeometry>
        </mxCell>
        <mxCell id="UEzPUAAOIrF-is8g5C7q-199" style="edgeStyle=orthogonalEdgeStyle;rounded=0;orthogonalLoop=1;jettySize=auto;html=1;startArrow=none;startFill=0;endArrow=open;endFill=0;strokeColor=#0B4D6A;strokeWidth=2;labelBackgroundColor=none;fontColor=default;" parent="1" source="UEzPUAAOIrF-is8g5C7q-178" target="UEzPUAAOIrF-is8g5C7q-182" edge="1">
          <mxGeometry relative="1" as="geometry" />
        </mxCell>
        <mxCell id="UEzPUAAOIrF-is8g5C7q-200" style="edgeStyle=orthogonalEdgeStyle;rounded=0;orthogonalLoop=1;jettySize=auto;html=1;startArrow=none;startFill=0;endArrow=open;endFill=0;strokeColor=#0B4D6A;strokeWidth=2;labelBackgroundColor=none;fontColor=default;" parent="1" source="UEzPUAAOIrF-is8g5C7q-178" target="UEzPUAAOIrF-is8g5C7q-183" edge="1">
          <mxGeometry relative="1" as="geometry">
            <Array as="points">
              <mxPoint x="576" y="150" />
            </Array>
          </mxGeometry>
        </mxCell>
        <mxCell id="UEzPUAAOIrF-is8g5C7q-197" style="edgeStyle=orthogonalEdgeStyle;rounded=0;orthogonalLoop=1;jettySize=auto;html=1;startArrow=none;startFill=0;endArrow=open;endFill=0;strokeColor=#0B4D6A;strokeWidth=2;labelBackgroundColor=none;fontColor=default;" parent="1" source="UEzPUAAOIrF-is8g5C7q-179" target="UEzPUAAOIrF-is8g5C7q-180" edge="1">
          <mxGeometry relative="1" as="geometry" />
        </mxCell>
        <mxCell id="UEzPUAAOIrF-is8g5C7q-201" style="edgeStyle=orthogonalEdgeStyle;rounded=0;orthogonalLoop=1;jettySize=auto;html=1;startArrow=none;startFill=0;endArrow=open;endFill=0;strokeColor=#0B4D6A;strokeWidth=2;labelBackgroundColor=none;fontColor=default;" parent="1" source="UEzPUAAOIrF-is8g5C7q-179" target="UEzPUAAOIrF-is8g5C7q-184" edge="1">
          <mxGeometry relative="1" as="geometry" />
        </mxCell>
        <mxCell id="UEzPUAAOIrF-is8g5C7q-202" style="edgeStyle=orthogonalEdgeStyle;rounded=0;orthogonalLoop=1;jettySize=auto;html=1;startArrow=none;startFill=0;endArrow=open;endFill=0;strokeColor=#0B4D6A;strokeWidth=2;labelBackgroundColor=none;fontColor=default;" parent="1" source="UEzPUAAOIrF-is8g5C7q-184" target="UEzPUAAOIrF-is8g5C7q-176" edge="1">
          <mxGeometry relative="1" as="geometry">
            <Array as="points">
              <mxPoint x="739" y="470" />
              <mxPoint x="329" y="470" />
            </Array>
          </mxGeometry>
        </mxCell>
        <mxCell id="UEzPUAAOIrF-is8g5C7q-203" style="edgeStyle=orthogonalEdgeStyle;rounded=0;orthogonalLoop=1;jettySize=auto;html=1;startArrow=none;startFill=0;endArrow=open;endFill=0;strokeColor=#0B4D6A;strokeWidth=2;labelBackgroundColor=none;fontColor=default;" parent="1" source="UEzPUAAOIrF-is8g5C7q-184" target="UEzPUAAOIrF-is8g5C7q-185" edge="1">
          <mxGeometry relative="1" as="geometry">
            <Array as="points">
              <mxPoint x="739" y="470" />
              <mxPoint x="674" y="470" />
            </Array>
          </mxGeometry>
        </mxCell>
        <mxCell id="UEzPUAAOIrF-is8g5C7q-204" style="edgeStyle=orthogonalEdgeStyle;rounded=0;orthogonalLoop=1;jettySize=auto;html=1;entryX=0.5;entryY=0;entryDx=0;entryDy=0;startArrow=none;startFill=0;endArrow=open;endFill=0;strokeColor=#0B4D6A;strokeWidth=2;labelBackgroundColor=none;fontColor=default;" parent="1" source="UEzPUAAOIrF-is8g5C7q-184" target="UEzPUAAOIrF-is8g5C7q-186" edge="1">
          <mxGeometry relative="1" as="geometry">
            <Array as="points">
              <mxPoint x="739" y="470" />
              <mxPoint x="835" y="470" />
            </Array>
          </mxGeometry>
        </mxCell>
        <mxCell id="4-UubsD77aIDf0rp-2hB-1" value="" style="edgeStyle=orthogonalEdgeStyle;rounded=0;orthogonalLoop=1;jettySize=auto;html=1;labelBackgroundColor=none;strokeColor=#0B4D6A;fontColor=default;" parent="1" source="UEzPUAAOIrF-is8g5C7q-177" target="UEzPUAAOIrF-is8g5C7q-181" edge="1">
          <mxGeometry relative="1" as="geometry" />
        </mxCell>
        <mxCell id="UEzPUAAOIrF-is8g5C7q-177" value="Amazon S3&lt;br&gt;Bucket&lt;br&gt;" style="outlineConnect=0;fontColor=#EEEEEE;fillColor=#09555B;strokeColor=none;dashed=0;verticalLabelPosition=bottom;verticalAlign=top;align=center;html=1;fontSize=12;fontStyle=0;aspect=fixed;pointerEvents=1;shape=mxgraph.aws4.bucket;labelBackgroundColor=none;" parent="1" vertex="1">
          <mxGeometry x="249" y="90" width="75" height="78" as="geometry" />
        </mxCell>
        <mxCell id="UEzPUAAOIrF-is8g5C7q-178" value="AWS&lt;br&gt;CodePipeline&lt;br&gt;" style="outlineConnect=0;fontColor=#EEEEEE;gradientDirection=north;fillColor=#09555B;strokeColor=#BAC8D3;dashed=0;verticalLabelPosition=bottom;verticalAlign=top;align=center;html=1;fontSize=12;fontStyle=0;aspect=fixed;shape=mxgraph.aws4.resourceIcon;resIcon=mxgraph.aws4.codepipeline;labelBackgroundColor=none;" parent="1" vertex="1">
          <mxGeometry x="429" y="90" width="78" height="78" as="geometry" />
        </mxCell>
        <mxCell id="UEzPUAAOIrF-is8g5C7q-179" value="AWS&lt;br&gt;Organizations&lt;br&gt;" style="outlineConnect=0;fontColor=#EEEEEE;gradientDirection=north;fillColor=#09555B;strokeColor=#BAC8D3;dashed=0;verticalLabelPosition=bottom;verticalAlign=top;align=center;html=1;fontSize=12;fontStyle=0;aspect=fixed;shape=mxgraph.aws4.resourceIcon;resIcon=mxgraph.aws4.organizations;labelBackgroundColor=none;" parent="1" vertex="1">
          <mxGeometry x="700" y="90" width="78" height="78" as="geometry" />
        </mxCell>
        <mxCell id="UEzPUAAOIrF-is8g5C7q-180" value="AWS Single&lt;br&gt;Sign-on&lt;br&gt;" style="outlineConnect=0;fontColor=#EEEEEE;gradientDirection=north;fillColor=#09555B;strokeColor=#BAC8D3;dashed=0;verticalLabelPosition=bottom;verticalAlign=top;align=center;html=1;fontSize=12;fontStyle=0;aspect=fixed;shape=mxgraph.aws4.resourceIcon;resIcon=mxgraph.aws4.cloudwatch;labelBackgroundColor=none;" parent="1" vertex="1">
          <mxGeometry x="856" y="90" width="78" height="78" as="geometry" />
        </mxCell>
        <mxCell id="UEzPUAAOIrF-is8g5C7q-181" value="Account&lt;br&gt;Baseline&lt;br&gt;" style="outlineConnect=0;fontColor=#EEEEEE;gradientDirection=north;fillColor=#09555B;strokeColor=#BAC8D3;dashed=0;verticalLabelPosition=bottom;verticalAlign=top;align=center;html=1;fontSize=12;fontStyle=0;aspect=fixed;shape=mxgraph.aws4.resourceIcon;resIcon=mxgraph.aws4.cloudformation;labelBackgroundColor=none;" parent="1" vertex="1">
          <mxGeometry x="316" y="270" width="78" height="78" as="geometry" />
        </mxCell>
        <mxCell id="UEzPUAAOIrF-is8g5C7q-182" value="AWS Service&lt;br&gt;Catalog&lt;br&gt;" style="outlineConnect=0;fontColor=#EEEEEE;gradientDirection=north;fillColor=#09555B;strokeColor=#BAC8D3;dashed=0;verticalLabelPosition=bottom;verticalAlign=top;align=center;html=1;fontSize=12;fontStyle=0;aspect=fixed;shape=mxgraph.aws4.resourceIcon;resIcon=mxgraph.aws4.service_catalog;labelBackgroundColor=none;" parent="1" vertex="1">
          <mxGeometry x="429" y="270" width="78" height="78" as="geometry" />
        </mxCell>
        <mxCell id="UEzPUAAOIrF-is8g5C7q-183" value="AWS&lt;br&gt;Parameter&lt;br&gt;Store&lt;br&gt;" style="outlineConnect=0;fontColor=#EEEEEE;fillColor=#09555B;strokeColor=none;dashed=0;verticalLabelPosition=bottom;verticalAlign=top;align=center;html=1;fontSize=12;fontStyle=0;aspect=fixed;pointerEvents=1;shape=mxgraph.aws4.parameter_store;labelBackgroundColor=none;" parent="1" vertex="1">
          <mxGeometry x="539" y="270" width="75" height="78" as="geometry" />
        </mxCell>
        <mxCell id="UEzPUAAOIrF-is8g5C7q-184" value="Core OU" style="outlineConnect=0;fontColor=#EEEEEE;fillColor=#09555B;strokeColor=none;dashed=0;verticalLabelPosition=bottom;verticalAlign=top;align=center;html=1;fontSize=12;fontStyle=0;aspect=fixed;pointerEvents=1;shape=mxgraph.aws4.resources;labelBackgroundColor=none;" parent="1" vertex="1">
          <mxGeometry x="705" y="280" width="68" height="78" as="geometry" />
        </mxCell>
        <mxCell id="UEzPUAAOIrF-is8g5C7q-187" value="Account&lt;br&gt;Baseline&lt;br&gt;" style="outlineConnect=0;fontColor=#EEEEEE;gradientDirection=north;fillColor=#09555B;strokeColor=#BAC8D3;dashed=0;verticalLabelPosition=bottom;verticalAlign=top;align=center;html=1;fontSize=12;fontStyle=0;aspect=fixed;shape=mxgraph.aws4.resourceIcon;resIcon=mxgraph.aws4.cloudformation;labelBackgroundColor=none;" parent="1" vertex="1">
          <mxGeometry x="239" y="542" width="78" height="78" as="geometry" />
        </mxCell>
        <mxCell id="UEzPUAAOIrF-is8g5C7q-188" value="Amazon VPC" style="outlineConnect=0;fontColor=#EEEEEE;gradientDirection=north;fillColor=#09555B;strokeColor=#BAC8D3;dashed=0;verticalLabelPosition=bottom;verticalAlign=top;align=center;html=1;fontSize=12;fontStyle=0;aspect=fixed;shape=mxgraph.aws4.resourceIcon;resIcon=mxgraph.aws4.vpc;labelBackgroundColor=none;" parent="1" vertex="1">
          <mxGeometry x="340" y="541" width="78" height="78" as="geometry" />
        </mxCell>
        <mxCell id="UEzPUAAOIrF-is8g5C7q-189" value="Account&lt;br&gt;Baseline&lt;br&gt;" style="outlineConnect=0;fontColor=#EEEEEE;gradientDirection=north;fillColor=#09555B;strokeColor=#BAC8D3;dashed=0;verticalLabelPosition=bottom;verticalAlign=top;align=center;html=1;fontSize=12;fontStyle=0;aspect=fixed;shape=mxgraph.aws4.resourceIcon;resIcon=mxgraph.aws4.cloudformation;labelBackgroundColor=none;" parent="1" vertex="1">
          <mxGeometry x="479" y="541" width="78" height="78" as="geometry" />
        </mxCell>
        <mxCell id="UEzPUAAOIrF-is8g5C7q-190" value="Aggregate&lt;br&gt;CloudTrail&lt;br&gt;and Config Logs&lt;br&gt;" style="outlineConnect=0;fontColor=#EEEEEE;fillColor=#09555B;strokeColor=none;dashed=0;verticalLabelPosition=bottom;verticalAlign=top;align=center;html=1;fontSize=12;fontStyle=0;aspect=fixed;pointerEvents=1;shape=mxgraph.aws4.flow_logs;labelBackgroundColor=none;" parent="1" vertex="1">
          <mxGeometry x="581" y="540" width="78" height="78" as="geometry" />
        </mxCell>
        <mxCell id="UEzPUAAOIrF-is8g5C7q-191" value="Account&lt;br&gt;Baseline&lt;br&gt;" style="outlineConnect=0;fontColor=#EEEEEE;gradientDirection=north;fillColor=#09555B;strokeColor=#BAC8D3;dashed=0;verticalLabelPosition=bottom;verticalAlign=top;align=center;html=1;fontSize=12;fontStyle=0;aspect=fixed;shape=mxgraph.aws4.resourceIcon;resIcon=mxgraph.aws4.cloudformation;labelBackgroundColor=none;" parent="1" vertex="1">
          <mxGeometry x="740" y="540" width="78" height="78" as="geometry" />
        </mxCell>
        <mxCell id="UEzPUAAOIrF-is8g5C7q-192" value="Security&lt;br&gt;Cross-Account&lt;br&gt;Roles&lt;br&gt;" style="outlineConnect=0;fontColor=#EEEEEE;fillColor=#09555B;strokeColor=none;dashed=0;verticalLabelPosition=bottom;verticalAlign=top;align=center;html=1;fontSize=12;fontStyle=0;aspect=fixed;pointerEvents=1;shape=mxgraph.aws4.addon;labelBackgroundColor=none;" parent="1" vertex="1">
          <mxGeometry x="849" y="559" width="78" height="40" as="geometry" />
        </mxCell>
        <mxCell id="UEzPUAAOIrF-is8g5C7q-193" value="Amazon&lt;br&gt;GuardDuty&lt;br&gt;" style="outlineConnect=0;fontColor=#EEEEEE;gradientDirection=north;fillColor=#09555B;strokeColor=#BAC8D3;dashed=0;verticalLabelPosition=bottom;verticalAlign=top;align=center;html=1;fontSize=12;fontStyle=0;aspect=fixed;shape=mxgraph.aws4.resourceIcon;resIcon=mxgraph.aws4.guardduty;labelBackgroundColor=none;" parent="1" vertex="1">
          <mxGeometry x="740" y="670" width="78" height="78" as="geometry" />
        </mxCell>
        <mxCell id="UEzPUAAOIrF-is8g5C7q-194" value="Amazon SNS" style="outlineConnect=0;fontColor=#EEEEEE;gradientDirection=north;fillColor=#09555B;strokeColor=#BAC8D3;dashed=0;verticalLabelPosition=bottom;verticalAlign=top;align=center;html=1;fontSize=12;fontStyle=0;aspect=fixed;shape=mxgraph.aws4.resourceIcon;resIcon=mxgraph.aws4.sns;labelBackgroundColor=none;" parent="1" vertex="1">
          <mxGeometry x="849" y="670" width="78" height="78" as="geometry" />
        </mxCell>
        <mxCell id="4-UubsD77aIDf0rp-2hB-2" value="" style="sketch=0;outlineConnect=0;fontColor=#EEEEEE;fillColor=#09555B;strokeColor=none;dashed=0;verticalLabelPosition=bottom;verticalAlign=top;align=center;html=1;fontSize=12;fontStyle=0;aspect=fixed;pointerEvents=1;shape=mxgraph.aws4.t2_instance;labelBackgroundColor=none;" parent="1" vertex="1">
          <mxGeometry x="110" y="-590" width="50" height="50" as="geometry" />
        </mxCell>
        <mxCell id="z_dzFqhaPa8rmwPkqHjc-6" value="" style="edgeStyle=orthogonalEdgeStyle;rounded=0;orthogonalLoop=1;jettySize=auto;html=1;" edge="1" parent="1" source="z_dzFqhaPa8rmwPkqHjc-1" target="z_dzFqhaPa8rmwPkqHjc-4">
          <mxGeometry relative="1" as="geometry" />
        </mxCell>
        <mxCell id="z_dzFqhaPa8rmwPkqHjc-1" value="User" style="sketch=0;pointerEvents=1;shadow=0;dashed=0;html=1;strokeColor=none;labelPosition=center;verticalLabelPosition=bottom;verticalAlign=top;align=center;fillColor=#505050;shape=mxgraph.mscae.intune.user_group;fontColor=#EEEEEE;" vertex="1" parent="1">
          <mxGeometry x="630" y="-800" width="50" height="37" as="geometry" />
        </mxCell>
        <mxCell id="z_dzFqhaPa8rmwPkqHjc-7" value="" style="edgeStyle=orthogonalEdgeStyle;rounded=0;orthogonalLoop=1;jettySize=auto;html=1;strokeColor=#0B4D6A;" edge="1" parent="1" source="z_dzFqhaPa8rmwPkqHjc-2" target="z_dzFqhaPa8rmwPkqHjc-4">
          <mxGeometry relative="1" as="geometry">
            <Array as="points">
              <mxPoint x="500" y="-780" />
              <mxPoint x="500" y="-780" />
            </Array>
          </mxGeometry>
        </mxCell>
        <mxCell id="z_dzFqhaPa8rmwPkqHjc-2" value="Admin" style="sketch=0;pointerEvents=1;shadow=0;dashed=0;html=1;strokeColor=none;fillColor=#505050;labelPosition=center;verticalLabelPosition=bottom;verticalAlign=top;outlineConnect=0;align=center;shape=mxgraph.office.users.universal_security_group;fontColor=#EEEEEE;" vertex="1" parent="1">
          <mxGeometry x="394" y="-800" width="46" height="40" as="geometry" />
        </mxCell>
        <mxCell id="z_dzFqhaPa8rmwPkqHjc-16" value="" style="edgeStyle=orthogonalEdgeStyle;rounded=0;orthogonalLoop=1;jettySize=auto;html=1;" edge="1" parent="1" source="z_dzFqhaPa8rmwPkqHjc-4" target="z_dzFqhaPa8rmwPkqHjc-15">
          <mxGeometry relative="1" as="geometry">
            <Array as="points">
              <mxPoint x="490" y="-770" />
              <mxPoint x="490" y="-650" />
            </Array>
          </mxGeometry>
        </mxCell>
        <mxCell id="z_dzFqhaPa8rmwPkqHjc-17" value="" style="edgeStyle=orthogonalEdgeStyle;rounded=0;orthogonalLoop=1;jettySize=auto;html=1;strokeColor=#0B4D6A;" edge="1" parent="1" source="z_dzFqhaPa8rmwPkqHjc-4" target="z_dzFqhaPa8rmwPkqHjc-15">
          <mxGeometry relative="1" as="geometry">
            <Array as="points">
              <mxPoint x="537" y="-710" />
              <mxPoint x="537" y="-710" />
            </Array>
          </mxGeometry>
        </mxCell>
        <mxCell id="z_dzFqhaPa8rmwPkqHjc-4" value="Internet" style="sketch=0;outlineConnect=0;fontColor=#232F3E;gradientColor=none;fillColor=#232F3D;strokeColor=none;dashed=0;verticalLabelPosition=bottom;verticalAlign=top;align=center;html=1;fontSize=12;fontStyle=0;aspect=fixed;pointerEvents=1;shape=mxgraph.aws4.internet_alt2;" vertex="1" parent="1">
          <mxGeometry x="517" y="-801.5" width="40" height="40" as="geometry" />
        </mxCell>
        <mxCell id="z_dzFqhaPa8rmwPkqHjc-9" value="VPC" style="points=[[0,0],[0.25,0],[0.5,0],[0.75,0],[1,0],[1,0.25],[1,0.5],[1,0.75],[1,1],[0.75,1],[0.5,1],[0.25,1],[0,1],[0,0.75],[0,0.5],[0,0.25]];outlineConnect=0;gradientColor=none;html=1;whiteSpace=wrap;fontSize=12;fontStyle=0;container=1;pointerEvents=0;collapsible=0;recursiveResize=0;shape=mxgraph.aws4.group;grIcon=mxgraph.aws4.group_vpc;strokeColor=#248814;fillColor=none;verticalAlign=top;align=left;spacingLeft=30;fontColor=#AAB7B8;dashed=0;" vertex="1" parent="1">
          <mxGeometry x="220" y="-652" width="774.5" height="522" as="geometry" />
        </mxCell>
        <mxCell id="z_dzFqhaPa8rmwPkqHjc-8" value="AWS Cloud" style="sketch=0;outlineConnect=0;gradientColor=none;html=1;whiteSpace=wrap;fontSize=12;fontStyle=0;shape=mxgraph.aws4.group;grIcon=mxgraph.aws4.group_aws_cloud;strokeColor=#AAB7B8;fillColor=none;verticalAlign=top;align=left;spacingLeft=30;fontColor=#AAB7B8;dashed=0;" vertex="1" parent="z_dzFqhaPa8rmwPkqHjc-9">
          <mxGeometry x="-25.5" y="-28" width="800" height="550" as="geometry" />
        </mxCell>
        <mxCell id="z_dzFqhaPa8rmwPkqHjc-19" value="Public subnet" style="points=[[0,0],[0.25,0],[0.5,0],[0.75,0],[1,0],[1,0.25],[1,0.5],[1,0.75],[1,1],[0.75,1],[0.5,1],[0.25,1],[0,1],[0,0.75],[0,0.5],[0,0.25]];outlineConnect=0;gradientColor=none;html=1;whiteSpace=wrap;fontSize=12;fontStyle=0;container=1;pointerEvents=0;collapsible=0;recursiveResize=0;shape=mxgraph.aws4.group;grIcon=mxgraph.aws4.group_security_group;grStroke=0;strokeColor=#248814;fillColor=#E9F3E6;verticalAlign=top;align=left;spacingLeft=30;fontColor=#248814;dashed=0;" vertex="1" parent="z_dzFqhaPa8rmwPkqHjc-9">
          <mxGeometry x="100" y="62" width="150" height="158" as="geometry" />
        </mxCell>
        <mxCell id="z_dzFqhaPa8rmwPkqHjc-21" value="Security group" style="fillColor=none;strokeColor=#DD3522;verticalAlign=top;fontStyle=0;fontColor=#DD3522;" vertex="1" parent="z_dzFqhaPa8rmwPkqHjc-9">
          <mxGeometry x="113.5" y="92" width="126.5" height="118" as="geometry" />
        </mxCell>
        <mxCell id="z_dzFqhaPa8rmwPkqHjc-22" value="&lt;div&gt;Application&lt;/div&gt;&lt;div&gt;Load Balancer - Admin&lt;/div&gt;" style="outlineConnect=0;dashed=0;verticalLabelPosition=bottom;verticalAlign=top;align=center;html=1;shape=mxgraph.aws3.application_load_balancer;fillColor=#F58536;gradientColor=none;strokeColor=#BAC8D3;fontColor=#EEEEEE;" vertex="1" parent="z_dzFqhaPa8rmwPkqHjc-9">
          <mxGeometry x="152" y="122" width="49.5" height="48" as="geometry" />
        </mxCell>
        <mxCell id="z_dzFqhaPa8rmwPkqHjc-24" value="Public subnet" style="points=[[0,0],[0.25,0],[0.5,0],[0.75,0],[1,0],[1,0.25],[1,0.5],[1,0.75],[1,1],[0.75,1],[0.5,1],[0.25,1],[0,1],[0,0.75],[0,0.5],[0,0.25]];outlineConnect=0;gradientColor=none;html=1;whiteSpace=wrap;fontSize=12;fontStyle=0;container=1;pointerEvents=0;collapsible=0;recursiveResize=0;shape=mxgraph.aws4.group;grIcon=mxgraph.aws4.group_security_group;grStroke=0;strokeColor=#248814;fillColor=#E9F3E6;verticalAlign=top;align=left;spacingLeft=30;fontColor=#248814;dashed=0;" vertex="1" parent="z_dzFqhaPa8rmwPkqHjc-9">
          <mxGeometry x="390" y="62" width="150" height="158" as="geometry" />
        </mxCell>
        <mxCell id="z_dzFqhaPa8rmwPkqHjc-25" value="Security group" style="fillColor=none;strokeColor=#DD3522;verticalAlign=top;fontStyle=0;fontColor=#DD3522;" vertex="1" parent="z_dzFqhaPa8rmwPkqHjc-9">
          <mxGeometry x="403.5" y="92" width="126.5" height="118" as="geometry" />
        </mxCell>
        <mxCell id="z_dzFqhaPa8rmwPkqHjc-26" value="&lt;div&gt;Application&lt;/div&gt;&lt;div&gt;Load Balancer - User&lt;/div&gt;" style="outlineConnect=0;dashed=0;verticalLabelPosition=bottom;verticalAlign=top;align=center;html=1;shape=mxgraph.aws3.application_load_balancer;fillColor=#F58536;gradientColor=none;strokeColor=#BAC8D3;fontColor=#EEEEEE;" vertex="1" parent="z_dzFqhaPa8rmwPkqHjc-9">
          <mxGeometry x="442" y="122" width="49.5" height="48" as="geometry" />
        </mxCell>
        <mxCell id="z_dzFqhaPa8rmwPkqHjc-33" value="" style="edgeStyle=orthogonalEdgeStyle;rounded=0;orthogonalLoop=1;jettySize=auto;html=1;strokeColor=#0B4D6A;" edge="1" parent="z_dzFqhaPa8rmwPkqHjc-9" source="z_dzFqhaPa8rmwPkqHjc-27">
          <mxGeometry relative="1" as="geometry">
            <mxPoint x="260" y="141" as="targetPoint" />
          </mxGeometry>
        </mxCell>
        <mxCell id="z_dzFqhaPa8rmwPkqHjc-34" value="" style="edgeStyle=orthogonalEdgeStyle;rounded=0;orthogonalLoop=1;jettySize=auto;html=1;strokeColor=#0B4D6A;" edge="1" parent="z_dzFqhaPa8rmwPkqHjc-9" source="z_dzFqhaPa8rmwPkqHjc-27">
          <mxGeometry relative="1" as="geometry">
            <mxPoint x="380" y="141" as="targetPoint" />
          </mxGeometry>
        </mxCell>
        <mxCell id="z_dzFqhaPa8rmwPkqHjc-27" value="" style="sketch=0;points=[[0,0,0],[0.25,0,0],[0.5,0,0],[0.75,0,0],[1,0,0],[0,1,0],[0.25,1,0],[0.5,1,0],[0.75,1,0],[1,1,0],[0,0.25,0],[0,0.5,0],[0,0.75,0],[1,0.25,0],[1,0.5,0],[1,0.75,0]];outlineConnect=0;fontColor=#232F3E;gradientColor=#945DF2;gradientDirection=north;fillColor=#5A30B5;strokeColor=#ffffff;dashed=0;verticalLabelPosition=bottom;verticalAlign=top;align=center;html=1;fontSize=12;fontStyle=0;aspect=fixed;shape=mxgraph.aws4.resourceIcon;resIcon=mxgraph.aws4.route_53;" vertex="1" parent="z_dzFqhaPa8rmwPkqHjc-9">
          <mxGeometry x="290" y="117" width="48" height="48" as="geometry" />
        </mxCell>
        <mxCell id="z_dzFqhaPa8rmwPkqHjc-30" value="" style="edgeStyle=orthogonalEdgeStyle;rounded=0;orthogonalLoop=1;jettySize=auto;html=1;strokeColor=#0B4D6A;" edge="1" parent="1" target="z_dzFqhaPa8rmwPkqHjc-27">
          <mxGeometry relative="1" as="geometry">
            <mxPoint x="520" y="-590" as="sourcePoint" />
            <Array as="points">
              <mxPoint x="520" y="-570" />
              <mxPoint x="520" y="-570" />
            </Array>
          </mxGeometry>
        </mxCell>
        <mxCell id="z_dzFqhaPa8rmwPkqHjc-31" value="" style="edgeStyle=orthogonalEdgeStyle;rounded=0;orthogonalLoop=1;jettySize=auto;html=1;strokeColor=#0B4D6A;" edge="1" parent="1" target="z_dzFqhaPa8rmwPkqHjc-27">
          <mxGeometry relative="1" as="geometry">
            <mxPoint x="550" y="-590" as="sourcePoint" />
            <Array as="points">
              <mxPoint x="550" y="-560" />
              <mxPoint x="550" y="-560" />
            </Array>
          </mxGeometry>
        </mxCell>
        <mxCell id="z_dzFqhaPa8rmwPkqHjc-15" value="Internet&lt;br&gt;Gateway" style="sketch=0;outlineConnect=0;fontColor=#232F3E;gradientColor=none;fillColor=#4D27AA;strokeColor=none;dashed=0;verticalLabelPosition=bottom;verticalAlign=top;align=center;html=1;fontSize=12;fontStyle=0;aspect=fixed;pointerEvents=1;shape=mxgraph.aws4.internet_gateway;" vertex="1" parent="1">
          <mxGeometry x="517" y="-670" width="38" height="38" as="geometry" />
        </mxCell>
        <mxCell id="z_dzFqhaPa8rmwPkqHjc-20" value="Public subnet" style="points=[[0,0],[0.25,0],[0.5,0],[0.75,0],[1,0],[1,0.25],[1,0.5],[1,0.75],[1,1],[0.75,1],[0.5,1],[0.25,1],[0,1],[0,0.75],[0,0.5],[0,0.25]];outlineConnect=0;gradientColor=none;html=1;whiteSpace=wrap;fontSize=12;fontStyle=0;container=1;pointerEvents=0;collapsible=0;recursiveResize=0;shape=mxgraph.aws4.group;grIcon=mxgraph.aws4.group_security_group;grStroke=0;strokeColor=#248814;fillColor=#E9F3E6;verticalAlign=top;align=left;spacingLeft=30;fontColor=#248814;dashed=0;" vertex="1" parent="1">
          <mxGeometry x="10" y="440" width="130" height="130" as="geometry" />
        </mxCell>
      </root>
    </mxGraphModel>
  </diagram>
</mxfile>
